<svg xmlns="http://www.w3.org/2000/svg" viewBox="0 0 900 500" width="900" height="500" fill="#e8317a">
  <title>UW Math Webring</title>

  <!-- Left arrow: line stops at x=100 where the polygon base is -->
  <line x1="280" y1="250" x2="100" y2="250" stroke="#e8317a" stroke-width="24" stroke-linecap="round"/>
  <polygon points="40,250 100,212 100,288" fill="#e8317a"/>

  <!-- π symbol (shifted to center) -->
  <g transform="translate(200, 0)">
    <rect x="60" y="60" width="380" height="52" rx="10" ry="10" />
    <rect x="148" y="112" width="48" height="260" rx="8" ry="8" />
    <rect x="114" y="352" width="116" height="36" rx="8" ry="8" />
    <path d="M 304,112 C 304,112 316,112 328,112 C 340,112 352,120 352,132 L 352,300 C 352,340 364,370 390,392 C 408,408 428,414 440,406 C 452,398 454,382 444,368 C 436,357 424,352 416,344 C 396,324 388,296 388,260 L 388,132 C 388,120 376,112 364,112 Z"/>
  </g>

  <!-- Right arrow: line stops at x=800 where the polygon base is -->
  <line x1="620" y1="250" x2="800" y2="250" stroke="#e8317a" stroke-width="24" stroke-linecap="round"/>
  <polygon points="860,250 800,212 800,288" fill="#e8317a"/>

</svg>
